<?xml version="1.0" encoding="UTF-8"?>
<svg xmlns="http://www.w3.org/2000/svg" xmlns:xlink="http://www.w3.org/1999/xlink" width="400px" height="210px" viewBox="0 0 400 210" version="1.1">
<g id="surface1">
<path style=" stroke:none;fill-rule:nonzero;fill:rgb(94.901961%,38.431373%,13.725491%);fill-opacity:1;" d="M 175.675781 70.6875 L 175.675781 79.765625 L 188.371094 79.765625 L 193.074219 70.6875 Z M 175.675781 70.6875 "/>
<path style=" stroke:none;fill-rule:nonzero;fill:rgb(38.039216%,41.176471%,49.019608%);fill-opacity:1;" d="M 12.011719 119.183594 C 12.996094 120.753906 14.234375 121.992188 15.804688 122.925781 C 17.386719 123.855469 19.15625 124.519531 21.113281 124.925781 C 23.085938 125.328125 25.132812 125.53125 27.230469 125.53125 C 28.851562 125.53125 30.519531 125.40625 32.289062 125.152344 C 34.058594 124.925781 35.675781 124.46875 37.167969 123.835938 C 38.667969 123.179688 39.898438 122.226562 40.859375 120.980469 C 41.847656 119.742188 42.300781 118.148438 42.300781 116.203125 C 42.300781 113.546875 41.289062 111.523438 39.292969 110.15625 C 37.292969 108.765625 34.765625 107.679688 31.757812 106.820312 C 28.722656 105.984375 25.460938 105.226562 21.921875 104.519531 C 18.382812 103.835938 15.070312 102.875 12.085938 101.613281 C 9.078125 100.371094 6.546875 98.628906 4.550781 96.351562 C 2.503906 94.101562 1.515625 90.941406 1.515625 86.921875 C 1.515625 83.785156 2.226562 81.082031 3.640625 78.832031 C 5.039062 76.570312 6.851562 74.742188 9.078125 73.34375 C 11.277344 71.929688 13.78125 70.867188 16.5625 70.183594 C 19.34375 69.492188 22.105469 69.144531 24.855469 69.144531 C 28.394531 69.144531 31.65625 69.449219 34.640625 70.058594 C 37.625 70.664062 40.253906 71.726562 42.554688 73.191406 C 44.855469 74.683594 46.699219 76.707031 48.039062 79.234375 C 49.429688 81.789062 50.214844 84.949219 50.46875 88.71875 L 40.152344 88.71875 C 39.976562 86.71875 39.46875 85.023438 38.585938 83.710938 C 37.699219 82.371094 36.585938 81.332031 35.195312 80.523438 C 33.804688 79.742188 32.339844 79.160156 30.671875 78.78125 C 29 78.425781 27.359375 78.25 25.664062 78.25 C 24.148438 78.25 22.578125 78.375 21.011719 78.601562 C 19.441406 78.855469 18.003906 79.285156 16.714844 79.890625 C 15.421875 80.472656 14.386719 81.308594 13.578125 82.292969 C 12.769531 83.304688 12.363281 84.621094 12.363281 86.238281 C 12.363281 88.035156 12.996094 89.5 14.234375 90.664062 C 15.5 91.828125 17.09375 92.789062 19.015625 93.570312 C 20.9375 94.304688 23.109375 94.988281 25.511719 95.492188 C 27.9375 96.023438 30.339844 96.582031 32.769531 97.136719 C 35.347656 97.691406 37.851562 98.375 40.304688 99.210938 C 42.757812 99.992188 44.929688 101.082031 46.851562 102.421875 C 48.75 103.761719 50.265625 105.429688 51.429688 107.425781 C 52.589844 109.449219 53.171875 111.953125 53.171875 114.9375 C 53.171875 118.730469 52.390625 121.863281 50.820312 124.367188 C 49.253906 126.871094 47.207031 128.894531 44.652344 130.410156 C 42.125 131.953125 39.265625 133.015625 36.082031 133.621094 C 32.894531 134.230469 29.734375 134.53125 26.597656 134.53125 C 23.125 134.53125 19.824219 134.171875 16.6875 133.445312 C 13.554688 132.710938 10.796875 131.523438 8.34375 129.855469 C 5.941406 128.210938 4.019531 126.035156 2.554688 123.304688 C 1.113281 120.601562 0.304688 117.289062 0.152344 113.417969 L 10.441406 113.417969 C 10.542969 115.695312 11.050781 117.59375 12.011719 119.183594 Z M 12.011719 119.183594 "/>
<path style=" stroke:none;fill-rule:nonzero;fill:rgb(38.039216%,41.176471%,49.019608%);fill-opacity:1;" d="M 76.6875 149.121094 C 75.523438 151.21875 74.234375 152.941406 72.84375 154.253906 C 71.429688 155.570312 69.886719 156.53125 68.191406 157.160156 C 66.472656 157.769531 64.476562 158.046875 62.148438 158.046875 C 60.933594 158.046875 59.722656 157.972656 58.535156 157.820312 C 57.320312 157.640625 56.15625 157.363281 55.019531 156.984375 L 55.019531 147.554688 C 55.980469 147.855469 56.964844 148.1875 57.953125 148.515625 C 58.988281 148.84375 60 148.996094 61.035156 148.996094 C 63.136719 148.996094 64.828125 148.515625 66.117188 147.554688 C 67.410156 146.566406 68.519531 145.175781 69.507812 143.332031 L 73.730469 132.8125 L 48.949219 70.6875 L 60.554688 70.6875 L 78.785156 121.8125 L 79.039062 121.8125 L 96.5625 70.6875 L 107.433594 70.6875 L 80.253906 141.382812 C 79.039062 144.445312 77.875 146.996094 76.6875 149.121094 Z M 76.6875 149.121094 "/>
<path style=" stroke:none;fill-rule:nonzero;fill:rgb(38.039216%,41.176471%,49.019608%);fill-opacity:1;" d="M 117.09375 119.183594 C 118.078125 120.753906 119.316406 121.992188 120.886719 122.925781 C 122.46875 123.855469 124.238281 124.519531 126.195312 124.925781 C 128.167969 125.328125 130.214844 125.53125 132.3125 125.53125 C 133.929688 125.53125 135.601562 125.40625 137.371094 125.152344 C 139.140625 124.925781 140.757812 124.46875 142.277344 123.835938 C 143.757812 123.179688 144.980469 122.226562 145.941406 120.980469 C 146.929688 119.742188 147.382812 118.148438 147.382812 116.203125 C 147.382812 113.546875 146.371094 111.523438 144.375 110.15625 C 142.378906 108.765625 139.847656 107.679688 136.839844 106.820312 C 133.804688 105.984375 130.542969 105.226562 127.003906 104.519531 C 123.464844 103.835938 120.152344 102.875 117.167969 101.613281 C 114.160156 100.371094 111.628906 98.628906 109.632812 96.351562 C 107.585938 94.101562 106.601562 90.941406 106.601562 86.921875 C 106.601562 83.785156 107.308594 81.082031 108.722656 78.832031 C 110.121094 76.570312 111.933594 74.742188 114.160156 73.34375 C 116.359375 71.929688 118.863281 70.867188 121.644531 70.183594 C 124.425781 69.492188 127.191406 69.144531 129.9375 69.144531 C 133.476562 69.144531 136.738281 69.449219 139.722656 70.058594 C 142.703125 70.664062 145.335938 71.726562 147.636719 73.191406 C 149.9375 74.683594 151.78125 76.707031 153.121094 79.234375 C 154.511719 81.789062 155.296875 84.949219 155.550781 88.71875 L 145.234375 88.71875 C 145.058594 86.71875 144.550781 85.023438 143.667969 83.710938 C 142.78125 82.371094 141.667969 81.332031 140.277344 80.523438 C 138.886719 79.742188 137.421875 79.160156 135.75 78.78125 C 134.082031 78.425781 132.441406 78.25 130.71875 78.25 C 129.203125 78.25 127.636719 78.375 126.070312 78.601562 C 124.5 78.855469 123.085938 79.285156 121.769531 79.890625 C 120.480469 80.472656 119.441406 81.308594 118.632812 82.292969 C 117.824219 83.304688 117.421875 84.621094 117.421875 86.238281 C 117.421875 88.035156 118.050781 89.5 119.292969 90.664062 C 120.554688 91.828125 122.148438 92.789062 124.070312 93.570312 C 125.992188 94.304688 128.167969 94.988281 130.570312 95.492188 C 132.996094 96.023438 135.398438 96.582031 137.824219 97.136719 C 140.40625 97.691406 142.90625 98.375 145.359375 99.210938 C 147.8125 99.992188 150.011719 101.082031 151.910156 102.421875 C 153.804688 103.761719 155.324219 105.429688 156.484375 107.425781 C 157.648438 109.449219 158.230469 111.953125 158.230469 114.9375 C 158.230469 118.730469 157.472656 121.863281 155.878906 124.367188 C 154.3125 126.871094 152.261719 128.894531 149.734375 130.410156 C 147.179688 131.953125 144.324219 133.015625 141.136719 133.621094 C 137.953125 134.230469 134.792969 134.53125 131.65625 134.53125 C 128.183594 134.53125 124.886719 134.171875 121.769531 133.445312 C 118.609375 132.710938 115.851562 131.523438 113.425781 129.855469 C 111.023438 128.210938 109.078125 126.035156 107.636719 123.304688 C 106.195312 120.601562 105.386719 117.289062 105.234375 113.417969 L 115.523438 113.417969 C 115.601562 115.695312 116.132812 117.59375 117.09375 119.183594 Z M 117.09375 119.183594 "/>
<path style=" stroke:none;fill-rule:nonzero;fill:rgb(38.039216%,41.176471%,49.019608%);fill-opacity:1;" d="M 175.980469 70.664062 L 175.980469 118.527344 C 175.980469 119.742188 176.082031 120.703125 176.28125 121.433594 C 176.484375 122.167969 176.863281 122.726562 177.421875 123.128906 C 177.976562 123.558594 178.761719 123.8125 179.773438 123.9375 C 180.757812 124.0625 182.074219 124.117188 183.691406 124.117188 L 191.757812 124.117188 L 187.054688 133.167969 L 180.53125 133.167969 C 177.875 133.167969 175.625 133.015625 173.730469 132.636719 C 171.832031 132.28125 170.316406 131.597656 169.128906 130.636719 C 167.964844 129.679688 167.105469 128.3125 166.546875 126.515625 C 165.964844 124.746094 165.6875 122.394531 165.6875 119.488281 L 165.6875 79.742188 L 159.796875 79.742188 L 159.796875 70.664062 L 165.6875 70.664062 L 165.6875 56.679688 L 176.003906 51.953125 L 176.003906 70.664062 Z M 175.980469 70.664062 "/>
<path style=" stroke:none;fill-rule:evenodd;fill:rgb(38.039216%,41.176471%,49.019608%);fill-opacity:1;" d="M 238.863281 129.195312 C 234.183594 132.738281 228.320312 134.507812 221.238281 134.507812 C 216.257812 134.507812 211.933594 133.722656 208.269531 132.105469 C 204.601562 130.488281 201.515625 128.210938 199.039062 125.304688 C 196.535156 122.394531 194.664062 118.933594 193.425781 114.910156 C 192.160156 110.890625 191.453125 106.492188 191.300781 101.714844 C 191.300781 96.960938 192.035156 92.609375 193.476562 88.640625 C 194.941406 84.695312 196.964844 81.257812 199.59375 78.375 C 202.199219 75.46875 205.308594 73.191406 208.875 71.597656 C 212.464844 69.980469 216.382812 69.171875 220.65625 69.171875 C 226.21875 69.171875 230.796875 70.308594 234.464844 72.609375 C 238.128906 74.9375 241.0625 77.84375 243.285156 81.382812 C 245.511719 84.941406 247.046875 88.816406 247.886719 93.015625 C 248.722656 97.210938 249.078125 101.207031 248.925781 105 L 202.148438 105 C 202.074219 107.730469 202.402344 110.335938 203.136719 112.789062 C 203.84375 115.265625 205.03125 117.441406 206.625 119.335938 C 208.242188 121.222656 210.289062 122.734375 212.769531 123.863281 C 215.269531 124.976562 218.203125 125.53125 221.59375 125.53125 C 225.917969 125.53125 229.480469 124.519531 232.261719 122.523438 C 235.042969 120.5 236.863281 117.441406 237.75 113.34375 L 247.886719 113.34375 C 246.523438 120.347656 243.515625 125.632812 238.863281 129.195312 Z M 236.382812 89.019531 C 235.472656 86.84375 234.210938 84.976562 232.644531 83.382812 C 231.074219 81.796875 229.21875 80.542969 227.078125 79.613281 C 224.957031 78.703125 222.605469 78.222656 220 78.222656 C 217.34375 78.222656 214.96875 78.703125 212.820312 79.613281 C 210.695312 80.542969 208.867188 81.8125 207.332031 83.433594 C 205.796875 85.050781 204.59375 86.929688 203.714844 89.070312 C 202.832031 91.195312 202.300781 93.46875 202.125 95.898438 L 238.003906 95.898438 C 237.875 93.496094 237.320312 91.195312 236.382812 89.019531 Z M 236.382812 89.019531 "/>
<path style=" stroke:none;fill-rule:nonzero;fill:rgb(38.039216%,41.176471%,49.019608%);fill-opacity:1;" d="M 264.195312 66.820312 L 264.195312 79.816406 L 264.425781 79.816406 C 269.101562 72.710938 275.851562 69.144531 284.652344 69.144531 C 288.519531 69.144531 292.035156 69.957031 295.195312 71.574219 C 298.332031 73.191406 300.554688 75.921875 301.847656 79.792969 C 303.945312 76.402344 306.699219 73.773438 310.140625 71.929688 C 313.578125 70.074219 317.351562 69.144531 321.464844 69.144531 C 324.617188 69.144531 327.46875 69.492188 330.011719 70.183594 C 332.539062 70.867188 334.714844 71.929688 336.535156 73.394531 C 338.355469 74.835938 339.773438 76.707031 340.757812 79.007812 C 341.769531 81.332031 342.277344 84.089844 342.277344 87.328125 L 342.277344 133.167969 L 331.960938 133.167969 L 331.960938 92.15625 C 331.960938 90.234375 331.808594 88.414062 331.503906 86.71875 C 331.175781 85 330.570312 83.535156 329.683594 82.292969 C 328.789062 81.046875 327.558594 80.050781 325.992188 79.3125 C 324.425781 78.578125 322.402344 78.222656 319.898438 78.222656 C 314.816406 78.222656 310.820312 79.664062 307.914062 82.574219 C 305.007812 85.480469 303.539062 89.347656 303.539062 94.179688 L 303.539062 133.167969 L 293.25 133.167969 L 293.25 92.15625 C 293.25 90.132812 293.074219 88.285156 292.71875 86.59375 C 292.339844 84.898438 291.707031 83.433594 290.820312 82.195312 C 289.9375 80.929688 288.773438 79.96875 287.257812 79.285156 C 285.773438 78.59375 283.851562 78.25 281.492188 78.25 C 278.507812 78.25 275.953125 78.855469 273.804688 80.042969 C 271.65625 81.257812 269.910156 82.722656 268.597656 84.394531 C 267.257812 86.113281 266.296875 87.855469 265.6875 89.652344 C 265.082031 91.472656 264.777344 92.988281 264.777344 94.203125 L 264.777344 133.167969 L 254.488281 133.167969 L 254.488281 71.574219 Z M 264.195312 66.820312 "/>
<path style=" stroke:none;fill-rule:nonzero;fill:rgb(38.039216%,41.176471%,49.019608%);fill-opacity:1;" d="M 358.710938 119.183594 C 359.695312 120.753906 360.933594 121.992188 362.527344 122.925781 C 364.097656 123.855469 365.855469 124.519531 367.8125 124.925781 C 369.785156 125.328125 371.832031 125.53125 373.929688 125.53125 C 375.550781 125.53125 377.21875 125.40625 378.988281 125.152344 C 380.757812 124.925781 382.375 124.46875 383.894531 123.835938 C 385.378906 123.179688 386.597656 122.226562 387.558594 120.980469 C 388.546875 119.742188 389.027344 118.148438 389.027344 116.203125 C 389.027344 113.546875 387.988281 111.523438 385.992188 110.15625 C 383.996094 108.765625 381.464844 107.679688 378.457031 106.820312 C 375.421875 105.984375 372.160156 105.226562 368.621094 104.519531 C 365.082031 103.835938 361.792969 102.875 358.785156 101.613281 C 355.777344 100.371094 353.25 98.628906 351.25 96.351562 C 349.203125 94.101562 348.21875 90.941406 348.21875 86.921875 C 348.21875 83.785156 348.925781 81.082031 350.339844 78.832031 C 351.742188 76.570312 353.550781 74.742188 355.777344 73.34375 C 357.976562 71.929688 360.480469 70.867188 363.261719 70.183594 C 366.042969 69.492188 368.808594 69.144531 371.554688 69.144531 C 375.09375 69.144531 378.355469 69.449219 381.339844 70.058594 C 384.324219 70.664062 386.976562 71.726562 389.253906 73.191406 C 391.554688 74.683594 393.398438 76.707031 394.742188 79.234375 C 396.132812 81.789062 396.914062 84.949219 397.167969 88.71875 L 386.851562 88.71875 C 386.675781 86.71875 386.167969 85.023438 385.285156 83.710938 C 384.398438 82.371094 383.285156 81.332031 381.894531 80.523438 C 380.53125 79.742188 379.039062 79.160156 377.371094 78.78125 C 375.703125 78.425781 374.058594 78.25 372.339844 78.25 C 370.820312 78.25 369.253906 78.375 367.6875 78.601562 C 366.117188 78.855469 364.703125 79.285156 363.414062 79.890625 C 362.097656 80.472656 361.0625 81.308594 360.253906 82.292969 C 359.445312 83.304688 359.039062 84.621094 359.039062 86.238281 C 359.039062 88.035156 359.671875 89.5 360.910156 90.664062 C 362.175781 91.828125 363.765625 92.789062 365.6875 93.570312 C 367.609375 94.304688 369.785156 94.988281 372.1875 95.492188 C 374.613281 96.023438 377.015625 96.582031 379.445312 97.136719 C 382.023438 97.691406 384.527344 98.375 386.976562 99.210938 C 389.457031 99.992188 391.628906 101.082031 393.527344 102.421875 C 395.421875 103.761719 396.941406 105.429688 398.105469 107.425781 C 399.265625 109.449219 399.847656 111.953125 399.847656 114.9375 C 399.847656 118.730469 399.089844 121.863281 397.496094 124.367188 C 395.929688 126.871094 393.882812 128.894531 391.351562 130.410156 C 388.796875 131.953125 385.941406 133.015625 382.757812 133.621094 C 379.570312 134.230469 376.433594 134.53125 373.273438 134.53125 C 369.800781 134.53125 366.507812 134.171875 363.386719 133.445312 C 360.226562 132.710938 357.472656 131.523438 355.042969 129.855469 C 352.617188 128.210938 350.667969 126.035156 349.230469 123.304688 C 347.789062 120.601562 347.003906 117.289062 346.828125 113.417969 L 357.117188 113.417969 C 357.242188 115.695312 357.75 117.59375 358.710938 119.183594 Z M 358.710938 119.183594 "/>
</g>
</svg>
